# xmcd
#
# Track frame offsets:
#	150
#	25287
#	48690
#	70533
#	93915
#	122862
#	158562
#	182866
#	205212
#	228387
#
# Disc length: 3352 seconds
#
# Revision: 1
# Processed by: cddbd v1.5.1PL0 Copyright (c) Steve Scherf et al.
# Submitted via: EasyCDDAExtractor 7.0.0.1
#
DISCID=820d160a
DTITLE=Calvin Mckinnie - Live In Chicago
DYEAR=2004
DGENRE=Blues
TTITLE0=Watch Dog
TTITLE1=Forty Four
TTITLE2=New York
TTITLE3=Blow Wind Blow
TTITLE4=Stranger Blues
TTITLE5=I'll Play the Blues
TTITLE6=All Your Love
TTITLE7=Still Called the Blues
TTITLE8=Hoochie Coochie Man
TTITLE9=Smokestack Lightnin'
EXTD=
EXTT0=
EXTT1=
EXTT2=
EXTT3=
EXTT4=
EXTT5=
EXTT6=
EXTT7=
EXTT8=
EXTT9=
PLAYORDER=
